<?xml version="1.0" encoding="UTF-8" standalone="no"?>
<svg
   version="1.1"
   x="0px"
   y="0px"
   viewBox="0 0 259 139.29827"
   xml:space="preserve"
   id="svg50"
   sodipodi:docname="logo_software_challenge.svg"
   inkscape:version="1.2.1 (9c6d41e410, 2022-07-14)"
   width="68.527084mm"
   height="36.855999mm"
   xmlns:inkscape="http://www.inkscape.org/namespaces/inkscape"
   xmlns:sodipodi="http://sodipodi.sourceforge.net/DTD/sodipodi-0.dtd"
   xmlns:xlink="http://www.w3.org/1999/xlink"
   xmlns="http://www.w3.org/2000/svg"
   xmlns:svg="http://www.w3.org/2000/svg"
   xmlns:rdf="http://www.w3.org/1999/02/22-rdf-syntax-ns#"
   xmlns:cc="http://creativecommons.org/ns#"
   xmlns:dc="http://purl.org/dc/elements/1.1/"
   xmlns:osb="http://www.openswatchbook.org/uri/2009/osb"><metadata
   id="metadata56"><rdf:RDF><cc:Work
       rdf:about=""><dc:format>image/svg+xml</dc:format><dc:type
         rdf:resource="http://purl.org/dc/dcmitype/StillImage" /></cc:Work></rdf:RDF></metadata><defs
   id="defs54"><rect
     x="171.86623"
     y="246.40005"
     width="155.20573"
     height="41.212822"
     id="rect874" /><linearGradient
     inkscape:collect="always"
     id="linearGradient2954"><stop
       style="stop-color:#735502;stop-opacity:1"
       offset="0"
       id="stop2952" /><stop
       style="stop-color:#c4940e;stop-opacity:1"
       offset="1"
       id="stop2950" /></linearGradient><linearGradient
     id="linearGradient2875-8"
     osb:paint="gradient"><stop
       style="stop-color:#a77d06;stop-opacity:1;"
       offset="0"
       id="stop2871" /><stop
       style="stop-color:#a77d06;stop-opacity:0;"
       offset="1"
       id="stop2873" /></linearGradient><linearGradient
     inkscape:collect="always"
     xlink:href="#linearGradient2954"
     id="linearGradient2956"
     x1="158.44284"
     y1="295.25122"
     x2="249.42"
     y2="263.38"
     gradientUnits="userSpaceOnUse"
     spreadMethod="reflect" /></defs><sodipodi:namedview
   pagecolor="#ffffff"
   bordercolor="#666666"
   borderopacity="1"
   objecttolerance="10"
   gridtolerance="10"
   guidetolerance="10"
   inkscape:pageopacity="0"
   inkscape:pageshadow="2"
   inkscape:window-width="1920"
   inkscape:window-height="995"
   id="namedview52"
   showgrid="false"
   inkscape:zoom="2"
   inkscape:cx="116.75"
   inkscape:cy="127.25"
   inkscape:window-x="1280"
   inkscape:window-y="0"
   inkscape:window-maximized="1"
   inkscape:current-layer="svg50"
   inkscape:document-rotation="0"
   inkscape:showpageshadow="0"
   inkscape:pagecheckerboard="0"
   inkscape:deskcolor="#d1d1d1"
   inkscape:document-units="mm" />
<style
   type="text/css"
   id="style2">
	.st0{fill:#DAB600;}
	.st1{fill:#A77D06;}
	.st2{fill:#D79E06;}
	.st3{fill:#FFFFFF;}
</style>
<g
   id="Grundscheiße">
</g>
<g
   id="Ebene_3">
	
<text
   xml:space="preserve"
   id="text872"
   style="font-style:normal;font-variant:normal;font-weight:normal;font-stretch:normal;font-size:40px;line-height:1.25;font-family:ObelixPro;-inkscape-font-specification:ObelixPro;white-space:pre;shape-inside:url(#rect874);fill:#000000;fill-opacity:1;stroke:none" /><text
   xml:space="preserve"
   style="font-style:normal;font-weight:normal;font-size:40px;line-height:1.25;font-family:sans-serif;fill:#000000;fill-opacity:1;stroke:none"
   x="189.05286"
   y="256.57172"
   id="text880"><tspan
     sodipodi:role="line"
     id="tspan878"
     x="189.05286"
     y="256.57172" /></text></g>
<g
   id="g395"
   transform="translate(-94.720065,-181.92836)"><g
     id="g47"
     transform="translate(-25.779935,1.5783633)">
		<path
   class="st0"
   d="m 192.47,304.49 v 15.16 l -24.8,-10.54 c 0,0 17.19,-5.33 24.8,-4.62 z"
   id="path5"
   style="fill:#ba8902;fill-opacity:1" />
		<path
   class="st0"
   d="m 307.76,319.65 v -15.91 c 4.89,-1.97 24.26,7.13 24.26,7.13 z"
   id="path7"
   style="fill:#ba8902;fill-opacity:1" />
		<path
   class="st1"
   d="m 154.76,244.93 12.91,64.17 c 0,0 42.46,-9 67.5,-9.39 25.04,-0.39 41.67,-1.17 56.74,0.78 15.07,1.96 40.11,10.37 40.11,10.37 l 11.74,-64.96 c 0,0 -26.8,-10.37 -55.76,-11.93 -28.96,-1.57 -61.83,-1.96 -79.43,0 -17.61,1.96 -44.03,3.33 -53.81,10.96 z"
   id="path9"
   style="fill:url(#linearGradient2956);fill-opacity:1;fill-rule:nonzero" />
		<g
   id="g21">
			<polygon
   class="st2"
   points="167.67,309.11 156.69,254.52 120.5,254.52 133.43,286.22 120.5,318.7 191.74,318.7 "
   id="polygon11" />
			<polygon
   class="st2"
   points="366.85,286.61 379.5,254.52 342.21,254.52 332.02,310.87 307.76,319.65 379.5,319.65 "
   id="polygon13" />
			<path
   class="st2"
   d="m 324.38,233.22 c 5.01,1.2 10,2.5 14.93,3.97 h 0.01 c 0.26,0.08 0.54,-0.07 0.62,-0.33 0.08,-0.26 -0.07,-0.54 -0.33,-0.63 -4.95,-1.53 -9.93,-2.89 -14.95,-4.15 -5.01,-1.26 -10.06,-2.39 -15.15,-3.34 -5.09,-0.95 -10.09,-1.99 -15.27,-2.43 -5.17,-0.44 -10.51,-1.25 -15.74,-0.61 h -0.01 c -0.45,0.06 -0.76,0.47 -0.7,0.92 0.06,0.45 0.47,0.76 0.92,0.7 h 0.01 c 5.02,-0.68 10.19,0.04 15.3,0.42 5.11,0.39 10.19,1.4 15.25,2.29 5.07,0.91 10.1,1.99 15.11,3.19 z"
   id="path15"
   style="fill:#f5b302;fill-opacity:1" />
			<path
   class="st2"
   d="m 217.97,226.01 c -9.96,0.05 -19.78,1.5 -29.48,3.32 -4.85,0.92 -9.67,1.99 -14.47,3.14 -4.8,1.16 -9.57,2.39 -14.31,3.77 -0.26,0.08 -0.42,0.35 -0.34,0.61 0.07,0.27 0.35,0.42 0.62,0.35 H 160 c 4.73,-1.31 9.51,-2.49 14.3,-3.58 4.8,-1.08 9.61,-2.09 14.45,-2.95 9.67,-1.7 19.45,-3 29.21,-2.93 h 0.02 c 0,0 0,0 0.01,0 0.48,0 0.87,-0.39 0.86,-0.87 -0.01,-0.48 -0.4,-0.87 -0.88,-0.86 z"
   id="path17"
   style="fill:#f5b302;fill-opacity:1" />
			<path
   class="st2"
   d="m 285.07,195.02 c 0,-4.97 -4.03,-9 -9,-9 -4.97,0 -9,4.03 -9,9 0,2.73 1.22,5.18 3.15,6.83 l -0.41,-0.15 -12.30202,13.70615 -3.33495,-18.34318 -0.86299,0.52703 c 3.17,-1.39 5.39,-4.56 5.39,-8.24 0,-4.97 -4.03,-9 -9,-9 -4.97,0 -9,4.03 -9,9 0,3.68 2.22,6.85 5.39,8.24 l -0.78149,-0.48053 -4.32454,18.31454 L 228.38,202.13 c 1.08,-1.48 1.73,-3.31 1.73,-5.28 0,-4.97 -4.03,-9 -9,-9 -4.97,0 -9,4.03 -9,9 0,4.97 4.03,9 9,9 0.4,0 0.79,-0.03 1.18,-0.09 l 4.89,22.74 h 45.59 l 3.33,-24.46 -0.07,-0.03 h 0.07 c 4.94,0.01 8.97,-4.02 8.97,-8.99 z"
   id="path19"
   style="fill:#f5b302;fill-opacity:1"
   sodipodi:nodetypes="ssscccccsssccccssssccccccs" />
		</g>
		
		
		
		
		
		
		
		
		
		
		
		
	</g><g
     aria-label="SOFTWARE CHALLENGE"
     transform="scale(0.98896332,1.0111598)"
     id="text890"
     style="font-style:normal;font-weight:normal;font-size:21.8241px;line-height:1.25;font-family:sans-serif;text-align:center;text-anchor:middle;fill:#ffffff;fill-opacity:1;stroke:none;stroke-width:1.02301"><path
       d="m 172.80854,243.01733 q 0.20145,1.04085 0.33575,2.35029 -0.80581,0.26861 -2.61889,0.87297 l -2.61889,0.83938 q -0.2686,-1.37659 -1.34302,-1.37659 -1.30945,0 -2.45102,1.20872 -0.73866,0.97369 -0.43648,1.81308 0.23503,0.5372 1.61163,0.5372 0.70508,0 1.71235,-0.16787 1.61163,-0.26861 2.8875,-0.26861 3.08895,0 3.96191,1.74593 0.30218,0.53721 0.47006,1.14157 0.4029,1.88023 -0.97369,4.09621 -1.6452,2.92108 -5.40566,4.86846 -1.91381,1.04084 -4.06264,1.04084 -1.94739,0 -3.99549,-0.83939 0.50363,-1.81308 1.84665,-5.33851 1.34302,0.73866 2.65247,0.73866 0.57078,0 1.20872,-0.23503 1.10799,-0.20145 2.04811,-0.67151 1.27587,-0.60436 1.14156,-1.27587 -0.1343,-0.80581 -1.67877,-0.80581 -1.00727,0 -2.92107,0.33575 -1.91381,0.43649 -2.95465,0.43649 -1.3766,0 -2.14884,-0.50364 -1.67877,-0.73866 -1.74592,-2.41744 -0.26861,-3.25682 3.559,-7.62164 3.92834,-4.46555 7.48735,-4.667 3.49185,-0.16788 4.43197,4.16336 z"
       style="font-style:normal;font-variant:normal;font-weight:normal;font-stretch:normal;font-size:21.8241px;font-family:ObelixPro;-inkscape-font-specification:ObelixPro;text-align:center;text-anchor:middle;fill:#ffffff;fill-opacity:1;stroke-width:1.02301"
       id="path168" /><path
       d="m 176.70329,243.01733 q 2.58532,-4.02906 6.84941,-4.02906 3.65974,0 6.07717,3.32398 1.34303,1.81308 1.84666,3.76046 0.50363,1.94738 0.43648,4.26409 -0.1343,3.92834 -2.35029,7.25232 -2.61889,4.06264 -6.84941,4.06264 -3.72688,0 -6.11075,-3.39113 -1.14156,-1.44375 -1.74592,-3.55901 -0.53721,-2.08168 -0.43649,-4.36482 0.20146,-4.02906 2.28314,-7.31947 z m 8.99825,3.82761 q -0.83939,-2.01453 -2.28314,-2.01453 -1.67878,0 -2.65247,2.51817 -0.77224,1.9138 -0.94011,3.92834 -0.0336,0.97369 0.2686,1.81308 0.30218,1.27587 1.00727,1.88023 0.80581,0.73866 2.04811,0.73866 1.71235,0 2.58531,-1.5109 0.70509,-1.27587 0.73866,-3.22325 0.0336,-2.14884 -0.77223,-4.1298 z"
       style="font-style:normal;font-variant:normal;font-weight:normal;font-stretch:normal;font-size:21.8241px;font-family:ObelixPro;-inkscape-font-specification:ObelixPro;text-align:center;text-anchor:middle;fill:#ffffff;fill-opacity:1;stroke-width:1.02301"
       id="path170" /><path
       d="m 198.35949,245.16617 -0.10073,3.18967 6.37936,-1.14156 0.60436,4.16336 q -3.76046,0.53721 -6.98372,1.14157 0,3.99549 0.33576,7.85668 l -6.07717,1.34302 -0.33576,-21.35404 12.38937,-1.41018 0.77224,5.50639 q -3.69331,0.20145 -6.98371,0.70509 z"
       style="font-style:normal;font-variant:normal;font-weight:normal;font-stretch:normal;font-size:21.8241px;font-family:ObelixPro;-inkscape-font-specification:ObelixPro;text-align:center;text-anchor:middle;fill:#ffffff;fill-opacity:1;stroke-width:1.02301"
       id="path172" /><path
       d="m 221.69449,244.59538 q -3.89477,0.20146 -5.60712,0.33576 -0.2686,3.65973 0.83939,15.7805 l -6.54723,1.34302 -0.0336,-16.58631 q -0.50363,0.0336 -2.28313,0.2686 -1.61163,0.20146 -2.65247,0.30218 l 0.40291,-5.74142 14.90754,-1.41017 z"
       style="font-style:normal;font-variant:normal;font-weight:normal;font-stretch:normal;font-size:21.8241px;font-family:ObelixPro;-inkscape-font-specification:ObelixPro;text-align:center;text-anchor:middle;fill:#ffffff;fill-opacity:1;stroke-width:1.02301"
       id="path174" /><path
       d="m 244.02221,240.16341 q -2.88749,8.99825 -4.36482,20.34678 l -6.07717,1.27587 -1.27587,-9.73691 -1.30945,9.30043 -5.47281,0.33575 q -1.2423,-10.10623 -4.49912,-20.64895 l 5.94287,-1.2423 1.84665,10.24054 1.2423,-10.91205 4.9356,-0.40291 1.44375,11.98647 1.81308,-11.75144 z"
       style="font-style:normal;font-variant:normal;font-weight:normal;font-stretch:normal;font-size:21.8241px;font-family:ObelixPro;-inkscape-font-specification:ObelixPro;text-align:center;text-anchor:middle;fill:#ffffff;fill-opacity:1;stroke-width:1.02301"
       id="path176" /><path
       d="m 243.08209,260.44304 q 3.1561,-10.30769 4.76772,-20.51466 l 8.02456,-1.10799 q 1.3766,9.13255 5.10348,21.11902 l -6.11075,1.41017 -0.80581,-3.76046 -3.99549,0.43648 -0.70509,3.79404 z m 10.10624,-6.81584 -1.3766,-7.99097 -1.34302,8.02455 z"
       style="font-style:normal;font-variant:normal;font-weight:normal;font-stretch:normal;font-size:21.8241px;font-family:ObelixPro;-inkscape-font-specification:ObelixPro;text-align:center;text-anchor:middle;fill:#ffffff;fill-opacity:1;stroke-width:1.02301"
       id="path178" /><path
       d="m 266.51781,246.17343 -0.10073,2.14884 q 1.17515,-0.53721 2.24957,-1.34302 1.7795,-1.3766 1.57805,-2.38387 -0.16788,-0.73866 -1.20872,-0.80581 -0.90654,-0.0336 -2.41744,0.30218 -0.10073,1.10799 -0.10073,2.08168 z m 3.65973,-7.45377 q 5.10349,0 5.87572,3.92834 0.36934,4.70058 -4.36482,7.72238 0.73867,1.14156 5.50639,6.84941 -1.94738,1.74592 -4.96918,4.33124 L 266.41708,253.09 q -0.0336,4.06264 0.23503,7.38661 l -5.53996,1.41018 q 0.47006,-16.14984 -0.1343,-21.6898 5.53996,-1.47733 9.19969,-1.47733 z"
       style="font-style:normal;font-variant:normal;font-weight:normal;font-stretch:normal;font-size:21.8241px;font-family:ObelixPro;-inkscape-font-specification:ObelixPro;text-align:center;text-anchor:middle;fill:#ffffff;fill-opacity:1;stroke-width:1.02301"
       id="path180" /><path
       d="m 286.6631,244.59538 q -1.6452,0.20146 -3.1561,0.36933 -0.10072,1.04085 -0.1343,1.5109 l -0.10072,1.47733 2.51816,-0.36933 2.48459,-0.47006 0.23503,2.08168 0.30218,2.11526 q -2.48459,0.40291 -3.22325,0.50363 -1.30945,0.23503 -2.31671,0.40291 l -0.0672,2.78677 3.39113,-0.47006 3.35756,-0.47005 0.36933,2.75319 0.33575,2.75319 q -2.61889,0.16788 -5.87572,0.67152 -3.2904,0.57078 -7.25231,1.41017 -0.0336,-1.81308 -0.0671,-5.30494 l -0.0672,-5.40566 q -0.0672,-7.05086 -0.10073,-10.67702 l 6.01002,-0.70509 6.0436,-0.70508 0.36933,2.71962 0.36933,2.75319 q -1.81308,0.1343 -3.42471,0.2686 z"
       style="font-style:normal;font-variant:normal;font-weight:normal;font-stretch:normal;font-size:21.8241px;font-family:ObelixPro;-inkscape-font-specification:ObelixPro;text-align:center;text-anchor:middle;fill:#ffffff;fill-opacity:1;stroke-width:1.02301"
       id="path182" /><path
       d="m 156.08794,288.22113 q -1.3766,-2.95465 -1.34303,-6.21148 0.0672,-3.08895 1.2423,-5.74141 1.17514,-2.71962 3.12252,-4.19695 2.14884,-1.57805 4.667,-1.20872 2.78677,0.36933 5.70785,3.08895 l -1.54448,2.04811 -1.57805,2.04811 q -2.8875,-1.94738 -4.667,-0.26861 -1.54447,1.41018 -1.47732,4.46555 0.16787,2.98822 1.67877,4.36482 1.77951,1.67878 4.56628,-0.40291 l 2.92107,3.72689 q -2.28314,3.05537 -5.06991,3.59258 -2.41744,0.47006 -4.73415,-1.10799 -2.18241,-1.44375 -3.49185,-4.19694 z"
       style="font-style:normal;font-variant:normal;font-weight:normal;font-stretch:normal;font-size:21.8241px;font-family:ObelixPro;-inkscape-font-specification:ObelixPro;text-align:center;text-anchor:middle;fill:#ffffff;fill-opacity:1;stroke-width:1.02301"
       id="path184" /><path
       d="m 176.23322,271.16475 q -0.60436,5.9093 -0.70508,10.13982 l 2.95464,-0.50364 -0.0671,-8.66249 6.68153,-0.97369 q -1.17514,12.42295 -0.4029,21.08544 l -6.1779,1.41017 -0.0336,-8.32673 q -1.00726,0.20145 -3.02179,0.57078 0.10072,3.72689 0.36933,6.34578 l -6.11075,1.41017 -0.1343,-21.52192 z"
       style="font-style:normal;font-variant:normal;font-weight:normal;font-stretch:normal;font-size:21.8241px;font-family:ObelixPro;-inkscape-font-specification:ObelixPro;text-align:center;text-anchor:middle;fill:#ffffff;fill-opacity:1;stroke-width:1.02301"
       id="path186" /><path
       d="m 185.16431,292.41807 q 3.1561,-10.30769 4.76773,-20.51465 l 8.02455,-1.108 q 1.3766,9.13255 5.10348,21.11902 l -6.11074,1.41017 -0.80582,-3.76046 -3.99549,0.43648 -0.70508,3.79404 z m 10.10624,-6.81583 -1.3766,-7.99098 -1.34302,8.02455 z"
       style="font-style:normal;font-variant:normal;font-weight:normal;font-stretch:normal;font-size:21.8241px;font-family:ObelixPro;-inkscape-font-specification:ObelixPro;text-align:center;text-anchor:middle;fill:#ffffff;fill-opacity:1;stroke-width:1.02301"
       id="path188" /><path
       d="m 203.19438,272.20559 6.14432,-0.97369 q -0.83939,8.32674 -0.73866,15.2433 l 6.41293,-0.80581 0.60436,5.57354 q -4.96918,0.30218 -12.38938,2.0481 z"
       style="font-style:normal;font-variant:normal;font-weight:normal;font-stretch:normal;font-size:21.8241px;font-family:ObelixPro;-inkscape-font-specification:ObelixPro;text-align:center;text-anchor:middle;fill:#ffffff;fill-opacity:1;stroke-width:1.02301"
       id="path190" /><path
       d="m 216.05378,272.20559 6.14433,-0.97369 q -0.83939,8.32674 -0.73867,15.2433 l 6.41293,-0.80581 0.60436,5.57354 q -4.96918,0.30218 -12.38937,2.0481 z"
       style="font-style:normal;font-variant:normal;font-weight:normal;font-stretch:normal;font-size:21.8241px;font-family:ObelixPro;-inkscape-font-specification:ObelixPro;text-align:center;text-anchor:middle;fill:#ffffff;fill-opacity:1;stroke-width:1.02301"
       id="path192" /><path
       d="m 238.28076,276.57042 q -1.6452,0.20145 -3.1561,0.36933 -0.10073,1.04084 -0.1343,1.5109 l -0.10073,1.47732 2.51817,-0.36933 2.48459,-0.47006 0.23502,2.08168 0.30218,2.11526 q -2.48459,0.40291 -3.22325,0.50364 -1.30944,0.23502 -2.31671,0.4029 l -0.0671,2.78677 3.39113,-0.47006 3.35755,-0.47005 0.36933,2.75319 0.33576,2.7532 q -2.61889,0.16787 -5.87572,0.67151 -3.2904,0.57078 -7.25232,1.41017 -0.0336,-1.81308 -0.0671,-5.30494 l -0.0671,-5.40566 q -0.0671,-7.05086 -0.10073,-10.67702 l 6.01003,-0.70509 6.04359,-0.70508 0.36933,2.71962 0.36933,2.75319 q -1.81307,0.1343 -3.4247,0.26861 z"
       style="font-style:normal;font-variant:normal;font-weight:normal;font-stretch:normal;font-size:21.8241px;font-family:ObelixPro;-inkscape-font-specification:ObelixPro;text-align:center;text-anchor:middle;fill:#ffffff;fill-opacity:1;stroke-width:1.02301"
       id="path194" /><path
       d="m 243.41781,271.56766 6.1779,-1.04084 q 0.1343,0.97369 0.50363,2.68604 0.97369,4.09622 1.9138,7.11802 0.57079,1.7795 1.20872,2.78677 v -11.58357 l 6.21148,-1.00726 q -1.27587,12.05362 -0.53721,20.74968 l -5.60712,1.34302 q -0.0336,-0.1343 -0.73866,-1.07441 l -2.88749,-4.3984 q -0.70509,-1.04084 -0.87297,-1.41017 0,3.62616 0.26861,6.88298 l -5.60712,1.3766 z"
       style="font-style:normal;font-variant:normal;font-weight:normal;font-stretch:normal;font-size:21.8241px;font-family:ObelixPro;-inkscape-font-specification:ObelixPro;text-align:center;text-anchor:middle;fill:#ffffff;fill-opacity:1;stroke-width:1.02301"
       id="path196" /><path
       d="m 264.67111,292.98885 q -1.61162,-0.87296 -2.75319,-2.48459 -0.57078,-0.90654 -1.04084,-1.81308 -0.36933,-1.00726 -0.60436,-1.98095 -0.20146,-1.04084 -0.23503,-2.11526 -0.0336,-1.14157 0.0672,-2.28314 0.23503,-2.01453 0.94012,-3.89476 0.80581,-1.88023 2.01453,-3.55901 1.57805,-2.08168 3.49185,-3.08895 1.91381,-1.00726 4.19695,-1.00726 1.98095,0 3.59258,0.83939 1.57805,0.83938 2.78677,2.61889 l -1.6452,1.7795 -1.71236,1.7795 q -1.6452,-1.94738 -3.82761,-1.24229 -1.9138,0.67151 -3.39113,3.08895 -1.67877,2.71962 -1.20872,5.70784 0.30218,1.57805 1.20872,2.45102 1.07442,1.00726 2.95465,0.90653 1.57805,-0.0671 2.78677,-1.10799 1.14157,-0.97369 1.54448,-2.55174 -1.17515,0.20145 -2.71962,0.50363 -1.00727,0.20146 -2.51817,0.60436 l 0.10073,-2.21598 0.10072,-2.18241 5.10349,-0.90654 5.10348,-0.80581 q 0.23503,0.97369 0.20145,2.11525 0,1.07442 -0.23503,2.35029 -0.30218,1.07442 -0.70508,2.08169 -0.40291,1.00726 -0.97369,1.9138 -1.57805,2.65247 -3.82762,3.96192 -2.28313,1.34302 -5.2042,1.34302 -1.94738,0 -3.59259,-0.80582 z"
       style="font-style:normal;font-variant:normal;font-weight:normal;font-stretch:normal;font-size:21.8241px;font-family:ObelixPro;-inkscape-font-specification:ObelixPro;text-align:center;text-anchor:middle;fill:#ffffff;fill-opacity:1;stroke-width:1.02301"
       id="path198" /><path
       d="m 289.21483,276.57042 q -1.6452,0.20145 -3.1561,0.36933 -0.10072,1.04084 -0.1343,1.5109 l -0.10073,1.47732 2.51817,-0.36933 2.48459,-0.47006 0.23503,2.08168 0.30218,2.11526 q -2.48459,0.40291 -3.22325,0.50364 -1.30945,0.23502 -2.31672,0.4029 l -0.0671,2.78677 3.39113,-0.47006 3.35756,-0.47005 0.36933,2.75319 0.33575,2.7532 q -2.61889,0.16787 -5.87572,0.67151 -3.2904,0.57078 -7.25231,1.41017 -0.0336,-1.81308 -0.0672,-5.30494 l -0.0672,-5.40566 q -0.0671,-7.05086 -0.10072,-10.67702 l 6.01002,-0.70509 6.0436,-0.70508 0.36933,2.71962 0.36933,2.75319 q -1.81308,0.1343 -3.42471,0.26861 z"
       style="font-style:normal;font-variant:normal;font-weight:normal;font-stretch:normal;font-size:21.8241px;font-family:ObelixPro;-inkscape-font-specification:ObelixPro;text-align:center;text-anchor:middle;fill:#ffffff;fill-opacity:1;stroke-width:1.02301"
       id="path200" /></g><path
     style="fill:#ffffff;fill-opacity:1;stroke:#fefefe;stroke-width:1px;stroke-linecap:butt;stroke-linejoin:miter;stroke-opacity:1"
     d="m 180.15253,246.8068 c -0.83987,0.85164 -1.20115,2.01441 -1.4881,3.1622 -0.38358,1.53434 -1.51286,3.95345 -0.89905,5.54935 0.0861,0.22398 0.30618,0.48536 0.43402,0.68205 0.87789,1.35058 2.20861,2.26314 3.84425,2.26314 0.54878,0 1.03356,0.0353 1.5501,-0.15501 0.53054,-0.19546 1.12334,-0.27623 1.42609,-0.80605 1.08885,-1.90548 1.45933,-6.31106 0.80605,-8.40154 -0.23018,-0.73659 -0.73517,-1.32418 -1.05406,-2.01513 -0.52705,-1.14194 -0.38372,-1.62193 -1.70511,-1.79811 -0.60483,-0.0806 -1.28562,-0.035 -1.86012,0.18601 -1.05295,0.40498 -0.63694,1.02024 -1.05407,1.33309 z"
     id="path894" /><path
     style="fill:#9a7408;fill-opacity:1;stroke:#9a7408;stroke-width:1px;stroke-linecap:butt;stroke-linejoin:miter;stroke-opacity:1"
     d="m 175.12426,250.69097 c -0.13777,-0.17448 1.6741,0.21702 1.6741,0.21702 l 1.82912,0.27901 c 1.08018,-0.071 3.75003,-4.87271 4.10924,-3.74541 l 0.88208,3.96243 c 1.44676,0.15793 5.8234,-0.18641 4.34028,0.47378 l -4.30928,2.4094 c 0.90991,1.42421 5.70386,6.01319 2.72974,4.27263 l -5.80237,-3.00875 c -1.85532,0.7119 -6.63762,2.97664 -5.56596,2.1357 l 3.77128,-3.92661 z"
     id="path896"
     sodipodi:nodetypes="cccccccccccc" /><path
     style="opacity:0;fill:#b5870b;fill-opacity:1;fill-rule:nonzero;stroke:#c3a600;stroke-width:0.124008"
     d="m 219.02446,280.08738 c -0.43883,-0.67087 -0.61039,-1.29372 -0.60842,-2.20884 0.002,-0.89478 0.46122,-3.22421 0.63571,-3.22421 0.0456,0 0.30561,0.57147 0.5778,1.26992 0.67179,1.7238 0.73302,2.7167 0.22697,3.6805 -0.4107,0.78218 -0.57411,0.87697 -0.83206,0.48263 z"
     id="path2980" /><path
     style="opacity:0;fill:#b5870b;fill-opacity:1;fill-rule:nonzero;stroke:#c3a600;stroke-width:0.124008"
     d="m 219.0266,280.07522 c -0.69738,-1.12839 -0.79698,-2.21644 -0.37332,-4.07844 0.14471,-0.63604 0.30027,-1.22598 0.34568,-1.31097 0.0999,-0.18697 0.94114,1.89864 1.14018,2.82671 0.17814,0.83066 0.002,1.70214 -0.49543,2.4538 l -0.35397,0.53467 z"
     id="path2982" /><path
     style="opacity:0;fill:#b5870b;fill-opacity:1;fill-rule:nonzero;stroke:#c3a600;stroke-width:0.124008"
     d="m 219.0266,280.07522 c -0.69738,-1.12839 -0.79698,-2.21644 -0.37332,-4.07844 0.14471,-0.63604 0.30027,-1.22598 0.34568,-1.31097 0.0999,-0.18697 0.94114,1.89864 1.14018,2.82671 0.17814,0.83066 0.002,1.70214 -0.49543,2.4538 l -0.35397,0.53467 z"
     id="path2984" /><path
     style="opacity:0;fill:#b5870b;fill-opacity:1;fill-rule:nonzero;stroke:#c3a600;stroke-width:0.124008"
     d="m 219.0266,280.07522 c -0.69738,-1.12839 -0.79698,-2.21644 -0.37332,-4.07844 0.14471,-0.63604 0.30027,-1.22598 0.34568,-1.31097 0.0999,-0.18697 0.94114,1.89864 1.14018,2.82671 0.17814,0.83066 0.002,1.70214 -0.49543,2.4538 l -0.35397,0.53467 z"
     id="path2986" /><path
     style="opacity:0;fill:#b5870b;fill-opacity:1;fill-rule:nonzero;stroke:#c3a600;stroke-width:0.124008"
     d="m 219.0266,280.07522 c -0.69738,-1.12839 -0.79698,-2.21644 -0.37332,-4.07844 0.14471,-0.63604 0.30027,-1.22598 0.34568,-1.31097 0.0999,-0.18697 0.94114,1.89864 1.14018,2.82671 0.17814,0.83066 0.002,1.70214 -0.49543,2.4538 l -0.35397,0.53467 z"
     id="path2988" /><path
     style="opacity:0;fill:#b5870b;fill-opacity:1;fill-rule:nonzero;stroke:#c3a600;stroke-width:0.124008"
     d="m 219.0266,280.07522 c -0.69738,-1.12839 -0.79698,-2.21644 -0.37332,-4.07844 0.14471,-0.63604 0.30027,-1.22598 0.34568,-1.31097 0.0999,-0.18697 0.94114,1.89864 1.14018,2.82671 0.17814,0.83066 0.002,1.70214 -0.49543,2.4538 l -0.35397,0.53467 z"
     id="path2990" /><path
     style="opacity:0;fill:#b5870b;fill-opacity:1;fill-rule:nonzero;stroke:#c3a600;stroke-width:0.124008"
     d="m 219.0266,280.07522 c -0.69738,-1.12839 -0.79698,-2.21644 -0.37332,-4.07844 0.14471,-0.63604 0.30027,-1.22598 0.34568,-1.31097 0.0999,-0.18697 0.94114,1.89864 1.14018,2.82671 0.17814,0.83066 0.002,1.70214 -0.49543,2.4538 l -0.35397,0.53467 z"
     id="path2992" /><path
     style="opacity:0;fill:#b5870b;fill-opacity:1;fill-rule:nonzero;stroke:#c3a600;stroke-width:0.124008"
     d="m 219.0266,280.07522 c -0.69738,-1.12839 -0.79698,-2.21644 -0.37332,-4.07844 0.14471,-0.63604 0.30027,-1.22598 0.34568,-1.31097 0.0999,-0.18697 0.94114,1.89864 1.14018,2.82671 0.17814,0.83066 0.002,1.70214 -0.49543,2.4538 l -0.35397,0.53467 z"
     id="path2994" /><path
     style="opacity:0;fill:#b5870b;fill-opacity:1;fill-rule:nonzero;stroke:#c3a600;stroke-width:0.124008"
     d="m 219.0266,280.07522 c -0.69738,-1.12839 -0.79698,-2.21644 -0.37332,-4.07844 0.14471,-0.63604 0.30027,-1.22598 0.34568,-1.31097 0.0999,-0.18697 0.94114,1.89864 1.14018,2.82671 0.17814,0.83066 0.002,1.70214 -0.49543,2.4538 l -0.35397,0.53467 z"
     id="path2996" /><path
     style="opacity:0;fill:#b5870b;fill-opacity:1;fill-rule:nonzero;stroke:#c3a600;stroke-width:0.124008"
     d="m 219.0266,280.07522 c -0.69738,-1.12839 -0.79698,-2.21644 -0.37332,-4.07844 0.14471,-0.63604 0.30027,-1.22598 0.34568,-1.31097 0.0999,-0.18697 0.94114,1.89864 1.14018,2.82671 0.17814,0.83066 0.002,1.70214 -0.49543,2.4538 l -0.35397,0.53467 z"
     id="path2998" /><path
     style="opacity:0;fill:#b5870b;fill-opacity:1;fill-rule:nonzero;stroke:#c3a600;stroke-width:0.124008"
     d="m 191.36208,319.11317 -0.80605,-0.35395 0.62004,-0.0401 0.62004,-0.0401 -0.99207,-0.39335 c -6.27031,-2.48612 -22.60931,-9.01619 -22.73969,-9.08818 -0.20046,-0.11068 9.66078,-2.07485 16.78731,-3.34371 3.53004,-0.62851 7.18167,-1.24967 7.34652,-1.24967 0.12354,0 0.15596,1.54664 0.15596,7.44048 0,4.09226 -0.0419,7.43643 -0.093,7.43149 -0.0512,-0.005 -0.45573,-0.16826 -0.89906,-0.36294 z"
     id="path3000" /></g></svg>
